<?xml version="1.0" encoding="utf-8" ?>
<svg baseProfile="full" height="736" version="1.1" viewBox="0 0 736 736" width="736" xmlns="http://www.w3.org/2000/svg" xmlns:ev="http://www.w3.org/2001/xml-events" xmlns:xlink="http://www.w3.org/1999/xlink"><defs><clipPath id="irisclip"><path d="M 401.00,703.50 L 400.50,703.00 L 400.00,702.50 L 399.00,702.50 L 398.00,702.50 L 397.00,702.50 L 396.00,702.50 L 395.00,702.50 L 394.00,702.50 L 393.00,702.50 L 392.00,702.50 L 391.00,702.50 L 390.00,702.50 L 389.00,702.50 L 388.00,702.50 L 387.00,702.50 L 386.00,702.50 L 385.00,702.50 L 384.00,702.50 L 383.50,702.00 L 383.00,701.50 L 382.00,701.50 L 381.00,701.50 L 380.00,701.50 L 379.00,701.50 L 378.00,701.50 L 377.00,701.50 L 376.00,701.50 L 375.00,701.50 L 374.00,701.50 L 373.00,701.50 L 372.00,701.50 L 371.00,701.50 L 370.00,701.50 L 369.00,701.50 L 368.00,701.50 L 367.00,701.50 L 366.00,701.50 L 365.00,701.50 L 364.00,701.50 L 363.00,701.50 L 362.00,701.50 L 361.00,701.50 L 360.00,701.50 L 359.00,701.50 L 358.00,701.50 L 357.00,701.50 L 356.00,701.50 L 355.00,701.50 L 354.00,701.50 L 353.00,701.50 L 352.00,701.50 L 351.00,701.50 L 350.00,701.50 L 349.00,701.50 L 348.00,701.50 L 347.00,701.50 L 346.00,701.50 L 345.00,701.50 L 344.00,701.50 L 343.00,701.50 L 342.50,701.00 L 342.00,700.50 L 341.00,700.50 L 340.00,700.50 L 339.00,700.50 L 338.00,700.50 L 337.50,701.00 L 337.00,701.50 L 336.00,701.50 L 335.50,701.00 L 335.00,700.50 L 334.50,701.00 L 334.50,702.00 L 335.00,702.50 L 335.50,703.00 L 335.00,703.50 L 334.00,703.50 L 333.00,703.50 L 332.00,703.50 L 331.00,703.50 L 330.00,703.50 L 329.00,703.50 L 328.50,703.00 L 328.00,702.50 L 327.00,702.50 L 326.00,702.50 L 325.00,702.50 L 324.50,702.00 L 324.50,701.00 L 324.50,700.00 L 324.00,699.50 L 323.00,699.50 L 322.00,699.50 L 321.00,699.50 L 320.00,699.50 L 319.00,699.50 L 318.00,699.50 L 317.00,699.50 L 316.00,699.50 L 315.00,699.50 L 314.00,699.50 L 313.00,699.50 L 312.00,699.50 L 311.00,699.50 L 310.00,699.50 L 309.00,699.50 L 308.00,699.50 L 307.00,699.50 L 306.00,699.50 L 305.00,699.50 L 304.00,699.50 L 303.00,699.50 L 302.00,699.50 L 301.00,699.50 L 300.00,699.50 L 299.00,699.50 L 298.00,699.50 L 297.00,699.50 L 296.50,699.00 L 296.00,698.50 L 295.50,698.00 L 295.50,697.00 L 295.50,696.00 L 295.50,695.00 L 295.50,694.00 L 295.00,693.50 L 294.50,693.00 L 294.50,692.00 L 294.00,691.50 L 293.50,691.00 L 293.00,690.50 L 292.00,690.50 L 291.00,690.50 L 290.00,690.50 L 289.00,690.50 L 288.00,690.50 L 287.00,690.50 L 286.00,690.50 L 285.00,690.50 L 284.00,690.50 L 283.00,690.50 L 282.50,690.00 L 282.00,689.50 L 281.50,689.00 L 281.00,688.50 L 280.50,689.00 L 280.00,689.50 L 279.50,690.00 L 279.00,690.50 L 278.00,690.50 L 277.00,690.50 L 276.00,690.50 L 275.00,690.50 L 274.00,690.50 L 273.00,690.50 L 272.50,690.00 L 273.00,689.50 L 273.50,689.00 L 273.00,688.50 L 272.50,688.00 L 272.00,687.50 L 271.50,687.00 L 271.50,686.00 L 271.50,685.00 L 271.00,684.50 L 270.00,684.50 L 269.50,684.00 L 269.00,683.50 L 268.00,683.50 L 267.50,683.00 L 267.00,682.50 L 266.00,682.50 L 265.50,683.00 L 265.00,683.50 L 264.00,683.50 L 263.50,684.00 L 263.00,684.50 L 262.00,684.50 L 261.00,684.50 L 260.00,684.50 L 259.00,684.50 L 258.00,684.50 L 257.00,684.50 L 256.00,684.50 L 255.00,684.50 L 254.00,684.50 L 253.00,684.50 L 252.00,684.50 L 251.50,684.00 L 251.00,683.50 L 250.50,683.00 L 250.50,682.00 L 250.50,681.00 L 250.50,680.00 L 250.50,679.00 L 250.50,678.00 L 250.00,677.50 L 249.50,677.00 L 249.00,676.50 L 248.00,676.50 L 247.00,676.50 L 246.00,676.50 L 245.00,676.50 L 244.50,676.00 L 244.00,675.50 L 243.00,675.50 L 242.00,675.50 L 241.00,675.50 L 240.50,675.00 L 240.00,674.50 L 239.50,674.00 L 239.00,673.50 L 238.50,673.00 L 238.00,672.50 L 237.50,672.00 L 237.00,671.50 L 236.00,671.50 L 235.50,671.00 L 235.00,670.50 L 234.50,670.00 L 234.00,669.50 L 233.00,669.50 L 232.50,669.00 L 232.00,668.50 L 231.00,668.50 L 230.00,668.50 L 229.50,668.00 L 229.00,667.50 L 228.00,667.50 L 227.00,667.50 L 226.50,667.00 L 226.00,666.50 L 225.00,666.50 L 224.50,666.00 L 224.00,665.50 L 223.00,665.50 L 222.50,665.00 L 222.00,664.50 L 221.50,664.00 L 221.00,663.50 L 220.50,663.00 L 220.00,662.50 L 219.00,662.50 L 218.00,662.50 L 217.50,662.00 L 217.00,661.50 L 216.00,661.50 L 215.00,661.50 L 214.50,661.00 L 214.00,660.50 L 213.00,660.50 L 212.50,660.00 L 212.00,659.50 L 211.50,659.00 L 211.00,658.50 L 210.50,658.00 L 210.00,657.50 L 209.00,657.50 L 208.50,657.00 L 208.00,656.50 L 207.00,656.50 L 206.50,656.00 L 206.00,655.50 L 205.00,655.50 L 204.00,655.50 L 203.00,655.50 L 202.00,655.50 L 201.00,655.50 L 200.00,655.50 L 199.50,655.00 L 199.00,654.50 L 198.50,654.00 L 198.00,653.50 L 197.50,653.00 L 197.50,652.00 L 197.00,651.50 L 196.50,651.00 L 196.50,650.00 L 196.00,649.50 L 195.50,649.00 L 195.50,648.00 L 195.00,647.50 L 194.00,647.50 L 193.50,647.00 L 193.00,646.50 L 192.50,646.00 L 192.00,645.50 L 191.00,645.50 L 190.00,645.50 L 189.00,645.50 L 188.00,645.50 L 187.00,645.50 L 186.00,645.50 L 185.50,645.00 L 185.50,644.00 L 186.00,643.50 L 186.50,643.00 L 186.00,642.50 L 185.50,642.00 L 185.50,641.00 L 185.00,640.50 L 184.00,640.50 L 183.50,640.00 L 183.00,639.50 L 182.00,639.50 L 181.50,639.00 L 181.00,638.50 L 180.00,638.50 L 179.50,638.00 L 179.00,637.50 L 178.00,637.50 L 177.50,637.00 L 177.50,636.00 L 177.00,635.50 L 176.50,635.00 L 176.00,634.50 L 175.50,634.00 L 175.00,633.50 L 174.50,633.00 L 174.00,632.50 L 173.00,632.50 L 172.50,632.00 L 172.00,631.50 L 171.00,631.50 L 170.50,631.00 L 170.00,630.50 L 169.50,630.00 L 169.00,629.50 L 168.50,629.00 L 168.00,628.50 L 167.50,628.00 L 167.00,627.50 L 166.50,627.00 L 166.00,626.50 L 165.50,626.00 L 165.00,625.50 L 164.50,625.00 L 164.00,624.50 L 163.00,624.50 L 162.50,624.00 L 162.50,623.00 L 162.00,622.50 L 161.50,622.00 L 161.00,621.50 L 160.50,621.00 L 160.00,620.50 L 159.00,620.50 L 158.50,620.00 L 158.00,619.50 L 157.50,619.00 L 157.00,618.50 L 156.50,618.00 L 156.00,617.50 L 155.00,617.50 L 154.00,617.50 L 153.50,617.00 L 153.00,616.50 L 152.00,616.50 L 151.50,616.00 L 151.50,615.00 L 151.00,614.50 L 150.50,614.00 L 150.00,613.50 L 149.00,613.50 L 148.50,613.00 L 148.00,612.50 L 147.00,612.50 L 146.50,612.00 L 146.00,611.50 L 145.00,611.50 L 144.50,611.00 L 144.00,610.50 L 143.50,611.00 L 143.00,611.50 L 142.00,611.50 L 141.50,611.00 L 141.00,610.50 L 140.50,610.00 L 140.00,609.50 L 139.50,609.00 L 139.50,608.00 L 139.00,607.50 L 138.50,607.00 L 138.50,606.00 L 138.50,605.00 L 138.50,604.00 L 138.00,603.50 L 137.50,603.00 L 137.50,602.00 L 137.00,601.50 L 136.00,601.50 L 135.50,601.00 L 135.00,600.50 L 134.50,600.00 L 134.00,599.50 L 133.50,599.00 L 133.00,598.50 L 132.50,598.00 L 132.00,597.50 L 131.50,597.00 L 131.00,596.50 L 130.00,596.50 L 129.00,596.50 L 128.00,596.50 L 127.50,596.00 L 127.00,595.50 L 126.00,595.50 L 125.00,595.50 L 124.50,595.00 L 124.50,594.00 L 124.00,593.50 L 123.50,593.00 L 123.50,592.00 L 124.00,591.50 L 124.50,591.00 L 124.00,590.50 L 123.50,590.00 L 123.50,589.00 L 123.50,588.00 L 123.50,587.00 L 123.00,586.50 L 122.50,586.00 L 122.00,585.50 L 121.50,585.00 L 121.50,584.00 L 121.00,583.50 L 120.00,583.50 L 119.50,583.00 L 119.50,582.00 L 119.00,581.50 L 118.50,581.00 L 118.00,580.50 L 117.50,580.00 L 117.50,579.00 L 117.00,578.50 L 116.50,578.00 L 116.50,577.00 L 116.50,576.00 L 116.00,575.50 L 115.50,575.00 L 115.00,574.50 L 114.50,574.00 L 114.00,573.50 L 113.00,573.50 L 112.00,573.50 L 111.50,573.00 L 111.50,572.00 L 111.50,571.00 L 111.00,570.50 L 110.50,570.00 L 110.00,569.50 L 109.50,569.00 L 109.00,568.50 L 108.50,568.00 L 108.00,567.50 L 107.00,567.50 L 106.00,567.50 L 105.50,567.00 L 105.50,566.00 L 105.50,565.00 L 105.00,564.50 L 104.50,564.00 L 104.50,563.00 L 104.00,562.50 L 103.50,562.00 L 103.50,561.00 L 103.50,560.00 L 103.00,559.50 L 102.00,559.50 L 101.50,559.00 L 101.00,558.50 L 100.50,558.00 L 100.00,557.50 L 99.50,557.00 L 99.00,556.50 L 98.50,556.00 L 98.50,555.00 L 98.00,554.50 L 97.50,554.00 L 97.00,553.50 L 96.50,553.00 L 96.00,552.50 L 95.50,552.00 L 95.00,551.50 L 94.50,551.00 L 94.50,550.00 L 94.50,549.00 L 94.00,548.50 L 93.00,548.50 L 92.50,548.00 L 92.00,547.50 L 91.00,547.50 L 90.50,547.00 L 90.50,546.00 L 90.00,545.50 L 89.50,545.00 L 89.50,544.00 L 89.00,543.50 L 88.50,543.00 L 88.00,542.50 L 87.50,543.00 L 87.00,543.50 L 86.00,543.50 L 85.00,543.50 L 84.00,543.50 L 83.00,543.50 L 82.50,543.00 L 82.00,542.50 L 81.00,542.50 L 80.50,542.00 L 80.50,541.00 L 80.50,540.00 L 80.50,539.00 L 80.50,538.00 L 80.50,537.00 L 80.50,536.00 L 81.00,535.50 L 81.50,535.00 L 81.00,534.50 L 80.00,534.50 L 79.50,534.00 L 79.50,533.00 L 79.50,532.00 L 80.00,531.50 L 80.50,531.00 L 81.00,530.50 L 81.50,530.00 L 81.50,529.00 L 81.50,528.00 L 81.50,527.00 L 81.00,526.50 L 80.50,526.00 L 80.00,525.50 L 79.50,525.00 L 79.50,524.00 L 79.00,523.50 L 78.50,523.00 L 78.00,522.50 L 77.50,522.00 L 77.50,521.00 L 77.00,520.50 L 76.50,520.00 L 76.50,519.00 L 76.00,518.50 L 75.50,518.00 L 75.50,517.00 L 75.50,516.00 L 75.00,515.50 L 74.50,515.00 L 74.50,514.00 L 74.50,513.00 L 74.50,512.00 L 74.00,511.50 L 73.50,511.00 L 73.50,510.00 L 73.00,509.50 L 72.00,509.50 L 71.50,509.00 L 71.00,508.50 L 70.00,508.50 L 69.50,508.00 L 69.00,507.50 L 68.00,507.50 L 67.00,507.50 L 66.50,507.00 L 66.50,506.00 L 66.00,505.50 L 65.50,505.00 L 66.00,504.50 L 66.50,504.00 L 66.50,503.00 L 66.00,502.50 L 65.50,502.00 L 65.50,501.00 L 65.50,500.00 L 65.50,499.00 L 65.50,498.00 L 65.50,497.00 L 65.50,496.00 L 65.00,495.50 L 64.00,495.50 L 63.50,495.00 L 63.50,494.00 L 63.50,493.00 L 63.50,492.00 L 63.00,491.50 L 62.50,491.00 L 62.50,490.00 L 62.50,489.00 L 62.50,488.00 L 62.00,487.50 L 61.50,487.00 L 61.50,486.00 L 61.00,485.50 L 60.50,485.00 L 60.00,484.50 L 59.50,484.00 L 59.50,483.00 L 59.00,482.50 L 58.50,482.00 L 59.00,481.50 L 59.50,481.00 L 59.50,480.00 L 59.50,479.00 L 59.50,478.00 L 59.50,477.00 L 59.00,476.50 L 58.50,476.00 L 58.50,475.00 L 58.50,474.00 L 58.50,473.00 L 58.00,472.50 L 57.50,472.00 L 57.00,471.50 L 56.50,471.00 L 56.00,470.50 L 55.50,470.00 L 55.00,469.50 L 54.50,469.00 L 54.00,468.50 L 53.50,468.00 L 53.50,467.00 L 53.50,466.00 L 53.50,465.00 L 53.50,464.00 L 53.50,463.00 L 53.50,462.00 L 53.50,461.00 L 53.50,460.00 L 53.50,459.00 L 53.50,458.00 L 53.00,457.50 L 52.50,457.00 L 52.50,456.00 L 52.50,455.00 L 52.50,454.00 L 52.00,453.50 L 51.50,453.00 L 51.00,452.50 L 50.50,452.00 L 50.50,451.00 L 50.00,450.50 L 49.00,450.50 L 48.50,450.00 L 48.50,449.00 L 48.00,448.50 L 47.00,448.50 L 46.00,448.50 L 45.50,448.00 L 45.00,447.50 L 44.50,447.00 L 44.50,446.00 L 44.50,445.00 L 44.50,444.00 L 45.00,443.50 L 46.00,443.50 L 46.50,443.00 L 47.00,442.50 L 47.50,442.00 L 47.50,441.00 L 47.50,440.00 L 47.50,439.00 L 47.50,438.00 L 47.50,437.00 L 47.50,436.00 L 47.50,435.00 L 47.00,434.50 L 46.50,434.00 L 46.50,433.00 L 46.00,432.50 L 45.50,432.00 L 45.50,431.00 L 45.50,430.00 L 45.50,429.00 L 45.50,428.00 L 45.50,427.00 L 45.00,426.50 L 44.50,426.00 L 44.50,425.00 L 44.50,424.00 L 44.50,423.00 L 44.50,422.00 L 44.50,421.00 L 44.00,420.50 L 43.50,420.00 L 43.50,419.00 L 43.50,418.00 L 43.50,417.00 L 43.50,416.00 L 43.50,415.00 L 43.50,414.00 L 43.50,413.00 L 43.50,412.00 L 43.50,411.00 L 43.00,410.50 L 42.50,410.00 L 42.50,409.00 L 42.50,408.00 L 42.00,407.50 L 41.50,407.00 L 41.50,406.00 L 41.50,405.00 L 41.50,404.00 L 41.50,403.00 L 41.50,402.00 L 41.50,401.00 L 41.50,400.00 L 41.50,399.00 L 41.50,398.00 L 41.50,397.00 L 41.00,396.50 L 40.50,396.00 L 40.50,395.00 L 40.00,394.50 L 39.50,394.00 L 39.50,393.00 L 39.50,392.00 L 39.50,391.00 L 39.50,390.00 L 39.50,389.00 L 39.50,388.00 L 39.50,387.00 L 39.50,386.00 L 39.50,385.00 L 39.50,384.00 L 39.50,383.00 L 39.50,382.00 L 39.50,381.00 L 39.50,380.00 L 39.50,379.00 L 39.50,378.00 L 39.50,377.00 L 39.50,376.00 L 39.50,375.00 L 39.50,374.00 L 39.50,373.00 L 39.50,372.00 L 39.50,371.00 L 39.50,370.00 L 39.50,369.00 L 39.00,368.50 L 38.50,368.00 L 39.00,367.50 L 39.50,367.00 L 39.50,366.00 L 39.50,365.00 L 39.50,364.00 L 39.50,363.00 L 39.50,362.00 L 39.50,361.00 L 39.50,360.00 L 39.00,359.50 L 38.00,359.50 L 37.50,359.00 L 38.00,358.50 L 38.50,358.00 L 38.50,357.00 L 38.50,356.00 L 38.50,355.00 L 38.50,354.00 L 39.00,353.50 L 40.00,353.50 L 41.00,353.50 L 41.50,353.00 L 42.00,352.50 L 43.00,352.50 L 43.50,352.00 L 43.50,351.00 L 43.50,350.00 L 43.50,349.00 L 43.50,348.00 L 43.50,347.00 L 43.50,346.00 L 43.50,345.00 L 43.50,344.00 L 43.50,343.00 L 43.50,342.00 L 43.50,341.00 L 43.50,340.00 L 43.50,339.00 L 43.50,338.00 L 43.50,337.00 L 43.50,336.00 L 43.50,335.00 L 43.50,334.00 L 43.50,333.00 L 43.50,332.00 L 44.00,331.50 L 44.50,331.00 L 44.50,330.00 L 44.50,329.00 L 44.50,328.00 L 44.50,327.00 L 44.50,326.00 L 44.50,325.00 L 44.50,324.00 L 44.50,323.00 L 44.50,322.00 L 44.50,321.00 L 44.50,320.00 L 44.50,319.00 L 44.50,318.00 L 44.50,317.00 L 44.50,316.00 L 44.50,315.00 L 45.00,314.50 L 45.50,314.00 L 45.50,313.00 L 45.50,312.00 L 45.50,311.00 L 45.50,310.00 L 45.50,309.00 L 45.50,308.00 L 45.50,307.00 L 46.00,306.50 L 46.50,306.00 L 46.50,305.00 L 47.00,304.50 L 47.50,304.00 L 47.50,303.00 L 48.00,302.50 L 48.50,302.00 L 48.00,301.50 L 47.50,301.00 L 47.50,300.00 L 48.00,299.50 L 48.50,299.00 L 49.00,298.50 L 49.50,298.00 L 49.50,297.00 L 50.00,296.50 L 50.50,296.00 L 50.50,295.00 L 50.50,294.00 L 51.00,293.50 L 51.50,293.00 L 51.50,292.00 L 51.50,291.00 L 51.50,290.00 L 51.50,289.00 L 52.00,288.50 L 52.50,288.00 L 52.50,287.00 L 52.50,286.00 L 53.00,285.50 L 53.50,285.00 L 53.50,284.00 L 53.50,283.00 L 53.50,282.00 L 53.50,281.00 L 53.50,280.00 L 53.50,279.00 L 53.50,278.00 L 53.50,277.00 L 53.50,276.00 L 54.00,275.50 L 54.50,275.00 L 54.50,274.00 L 54.50,273.00 L 54.50,272.00 L 54.00,271.50 L 53.50,271.00 L 53.00,270.50 L 52.00,270.50 L 51.50,270.00 L 51.50,269.00 L 52.00,268.50 L 53.00,268.50 L 54.00,268.50 L 55.00,268.50 L 55.50,268.00 L 55.50,267.00 L 55.00,266.50 L 54.50,266.00 L 55.00,265.50 L 56.00,265.50 L 57.00,265.50 L 57.50,265.00 L 58.00,264.50 L 59.00,264.50 L 59.50,264.00 L 59.00,263.50 L 58.50,263.00 L 58.50,262.00 L 59.00,261.50 L 59.50,261.00 L 59.50,260.00 L 60.00,259.50 L 60.50,259.00 L 60.50,258.00 L 60.50,257.00 L 61.00,256.50 L 61.50,256.00 L 62.00,255.50 L 62.50,255.00 L 62.50,254.00 L 62.50,253.00 L 62.50,252.00 L 62.50,251.00 L 62.50,250.00 L 62.50,249.00 L 63.00,248.50 L 63.50,248.00 L 63.50,247.00 L 63.50,246.00 L 64.00,245.50 L 64.50,245.00 L 65.00,244.50 L 65.50,244.00 L 66.00,243.50 L 66.50,243.00 L 66.50,242.00 L 67.00,241.50 L 67.50,241.00 L 67.50,240.00 L 68.00,239.50 L 68.50,239.00 L 68.50,238.00 L 69.00,237.50 L 69.50,237.00 L 70.00,236.50 L 70.50,236.00 L 71.00,235.50 L 71.50,235.00 L 72.00,234.50 L 72.50,234.00 L 73.00,233.50 L 73.50,233.00 L 73.50,232.00 L 73.50,231.00 L 73.50,230.00 L 73.50,229.00 L 73.50,228.00 L 73.50,227.00 L 73.50,226.00 L 74.00,225.50 L 74.50,225.00 L 74.50,224.00 L 75.00,223.50 L 75.50,223.00 L 75.50,222.00 L 76.00,221.50 L 76.50,221.00 L 76.50,220.00 L 76.50,219.00 L 77.00,218.50 L 77.50,218.00 L 77.50,217.00 L 77.50,216.00 L 77.50,215.00 L 78.00,214.50 L 78.50,214.00 L 78.50,213.00 L 79.00,212.50 L 79.50,212.00 L 79.50,211.00 L 80.00,210.50 L 81.00,210.50 L 82.00,210.50 L 82.50,210.00 L 82.50,209.00 L 82.50,208.00 L 83.00,207.50 L 84.00,207.50 L 84.50,207.00 L 85.00,206.50 L 86.00,206.50 L 87.00,206.50 L 87.50,206.00 L 87.50,205.00 L 87.50,204.00 L 87.50,203.00 L 88.00,202.50 L 88.50,202.00 L 88.50,201.00 L 88.50,200.00 L 88.50,199.00 L 89.00,198.50 L 89.50,198.00 L 90.00,197.50 L 90.50,197.00 L 91.00,196.50 L 91.50,196.00 L 92.00,195.50 L 92.50,195.00 L 92.50,194.00 L 92.50,193.00 L 92.50,192.00 L 93.00,191.50 L 94.00,191.50 L 94.50,191.00 L 94.50,190.00 L 94.50,189.00 L 94.50,188.00 L 95.00,187.50 L 95.50,187.00 L 95.50,186.00 L 95.50,185.00 L 95.50,184.00 L 96.00,183.50 L 97.00,183.50 L 97.50,183.00 L 98.00,182.50 L 99.00,182.50 L 100.00,182.50 L 101.00,182.50 L 101.50,182.00 L 102.00,181.50 L 102.50,181.00 L 103.00,180.50 L 103.50,180.00 L 103.50,179.00 L 103.50,178.00 L 103.50,177.00 L 103.50,176.00 L 104.00,175.50 L 104.50,175.00 L 105.00,174.50 L 105.50,174.00 L 105.50,173.00 L 105.50,172.00 L 105.50,171.00 L 105.50,170.00 L 106.00,169.50 L 106.50,169.00 L 107.00,168.50 L 107.50,168.00 L 107.50,167.00 L 108.00,166.50 L 108.50,166.00 L 109.00,165.50 L 109.50,165.00 L 109.50,164.00 L 109.50,163.00 L 110.00,162.50 L 111.00,162.50 L 112.00,162.50 L 113.00,162.50 L 114.00,162.50 L 114.50,162.00 L 115.00,161.50 L 116.00,161.50 L 117.00,161.50 L 117.50,161.00 L 117.50,160.00 L 118.00,159.50 L 118.50,159.00 L 118.50,158.00 L 118.50,157.00 L 118.50,156.00 L 118.50,155.00 L 118.50,154.00 L 119.00,153.50 L 119.50,153.00 L 119.50,152.00 L 120.00,151.50 L 120.50,151.00 L 121.00,150.50 L 121.50,150.00 L 122.00,149.50 L 122.50,149.00 L 123.00,148.50 L 123.50,148.00 L 124.00,147.50 L 125.00,147.50 L 125.50,147.00 L 126.00,146.50 L 127.00,146.50 L 127.50,147.00 L 128.00,147.50 L 128.50,147.00 L 128.50,146.00 L 129.00,145.50 L 130.00,145.50 L 130.50,145.00 L 131.00,144.50 L 131.50,144.00 L 131.50,143.00 L 131.50,142.00 L 132.00,141.50 L 132.50,141.00 L 132.50,140.00 L 132.50,139.00 L 132.50,138.00 L 133.00,137.50 L 133.50,137.00 L 133.50,136.00 L 133.50,135.00 L 133.50,134.00 L 134.00,133.50 L 134.50,133.00 L 134.00,132.50 L 133.50,132.00 L 133.50,131.00 L 133.50,130.00 L 134.00,129.50 L 134.50,129.00 L 135.00,128.50 L 135.50,128.00 L 136.00,127.50 L 137.00,127.50 L 137.50,127.00 L 138.00,126.50 L 139.00,126.50 L 139.50,126.00 L 140.00,125.50 L 140.50,125.00 L 140.50,124.00 L 141.00,123.50 L 141.50,123.00 L 142.00,122.50 L 142.50,122.00 L 143.00,121.50 L 143.50,121.00 L 143.50,120.00 L 144.00,119.50 L 145.00,119.50 L 146.00,119.50 L 147.00,119.50 L 148.00,119.50 L 148.50,119.00 L 149.00,118.50 L 150.00,118.50 L 151.00,118.50 L 152.00,118.50 L 153.00,118.50 L 154.00,118.50 L 154.50,118.00 L 155.00,117.50 L 156.00,117.50 L 157.00,117.50 L 158.00,117.50 L 159.00,117.50 L 160.00,117.50 L 160.50,117.00 L 161.00,116.50 L 161.50,116.00 L 161.50,115.00 L 161.50,114.00 L 161.50,113.00 L 161.50,112.00 L 162.00,111.50 L 162.50,111.00 L 163.00,110.50 L 163.50,110.00 L 163.50,109.00 L 163.00,108.50 L 162.50,108.00 L 162.50,107.00 L 163.00,106.50 L 163.50,106.00 L 164.00,105.50 L 165.00,105.50 L 165.50,105.00 L 166.00,104.50 L 167.00,104.50 L 167.50,104.00 L 168.00,103.50 L 169.00,103.50 L 170.00,103.50 L 171.00,103.50 L 172.00,103.50 L 173.00,103.50 L 174.00,103.50 L 174.50,103.00 L 175.00,102.50 L 175.50,102.00 L 175.50,101.00 L 175.50,100.00 L 176.00,99.50 L 176.50,99.00 L 177.00,98.50 L 177.50,98.00 L 177.50,97.00 L 178.00,96.50 L 178.50,96.00 L 178.50,95.00 L 179.00,94.50 L 180.00,94.50 L 180.50,94.00 L 181.00,93.50 L 182.00,93.50 L 182.50,93.00 L 183.00,92.50 L 184.00,92.50 L 184.50,92.00 L 185.00,91.50 L 186.00,91.50 L 186.50,91.00 L 186.50,90.00 L 187.00,89.50 L 187.50,89.00 L 188.00,88.50 L 188.50,89.00 L 189.00,89.50 L 190.00,89.50 L 191.00,89.50 L 191.50,89.00 L 191.50,88.00 L 192.00,87.50 L 192.50,87.00 L 192.50,86.00 L 193.00,85.50 L 193.50,85.00 L 194.00,84.50 L 194.50,84.00 L 195.00,83.50 L 196.00,83.50 L 196.50,83.00 L 197.00,82.50 L 197.50,82.00 L 198.00,81.50 L 198.50,81.00 L 199.00,80.50 L 199.50,80.00 L 200.00,79.50 L 201.00,79.50 L 201.50,79.00 L 201.50,78.00 L 202.00,77.50 L 202.50,77.00 L 203.00,76.50 L 203.50,77.00 L 204.00,77.50 L 205.00,77.50 L 206.00,77.50 L 207.00,77.50 L 208.00,77.50 L 209.00,77.50 L 209.50,77.00 L 210.00,76.50 L 210.50,76.00 L 211.00,75.50 L 211.50,75.00 L 212.00,74.50 L 212.50,74.00 L 213.00,73.50 L 213.50,74.00 L 214.00,74.50 L 214.50,75.00 L 215.00,75.50 L 215.50,75.00 L 216.00,74.50 L 217.00,74.50 L 217.50,74.00 L 218.00,73.50 L 219.00,73.50 L 219.50,73.00 L 220.00,72.50 L 221.00,72.50 L 221.50,72.00 L 221.50,71.00 L 221.50,70.00 L 222.00,69.50 L 222.50,69.00 L 222.50,68.00 L 223.00,67.50 L 223.50,67.00 L 224.00,66.50 L 224.50,66.00 L 225.00,65.50 L 225.50,65.00 L 226.00,64.50 L 226.50,64.00 L 227.00,63.50 L 227.50,63.00 L 228.00,62.50 L 228.50,62.00 L 229.00,61.50 L 229.50,61.00 L 229.50,60.00 L 230.00,59.50 L 231.00,59.50 L 232.00,59.50 L 233.00,59.50 L 233.50,60.00 L 234.00,60.50 L 234.50,61.00 L 235.00,61.50 L 235.50,62.00 L 236.00,62.50 L 237.00,62.50 L 238.00,62.50 L 239.00,62.50 L 239.50,62.00 L 240.00,61.50 L 240.50,61.00 L 241.00,60.50 L 242.00,60.50 L 242.50,60.00 L 243.00,59.50 L 244.00,59.50 L 245.00,59.50 L 246.00,59.50 L 246.50,59.00 L 247.00,58.50 L 248.00,58.50 L 249.00,58.50 L 249.50,58.00 L 250.00,57.50 L 250.50,57.00 L 250.50,56.00 L 250.50,55.00 L 251.00,54.50 L 251.50,54.00 L 251.50,53.00 L 251.50,52.00 L 252.00,51.50 L 252.50,51.00 L 253.00,50.50 L 254.00,50.50 L 255.00,50.50 L 255.50,51.00 L 256.00,51.50 L 257.00,51.50 L 258.00,51.50 L 258.50,51.00 L 259.00,50.50 L 260.00,50.50 L 261.00,50.50 L 262.00,50.50 L 263.00,50.50 L 264.00,50.50 L 264.50,50.00 L 265.00,49.50 L 265.50,50.00 L 266.00,50.50 L 267.00,50.50 L 268.00,50.50 L 268.50,50.00 L 269.00,49.50 L 269.50,49.00 L 270.00,48.50 L 271.00,48.50 L 271.50,48.00 L 272.00,47.50 L 273.00,47.50 L 274.00,47.50 L 275.00,47.50 L 276.00,47.50 L 277.00,47.50 L 277.50,47.00 L 278.00,46.50 L 279.00,46.50 L 280.00,46.50 L 280.50,47.00 L 281.00,47.50 L 282.00,47.50 L 283.00,47.50 L 283.50,47.00 L 284.00,46.50 L 284.50,46.00 L 285.00,45.50 L 286.00,45.50 L 287.00,45.50 L 287.50,46.00 L 288.00,46.50 L 288.50,46.00 L 288.00,45.50 L 287.50,45.00 L 288.00,44.50 L 289.00,44.50 L 290.00,44.50 L 291.00,44.50 L 291.50,45.00 L 292.00,45.50 L 292.50,45.00 L 293.00,44.50 L 293.50,44.00 L 294.00,43.50 L 294.50,43.00 L 295.00,42.50 L 295.50,42.00 L 295.00,41.50 L 294.50,41.00 L 295.00,40.50 L 295.50,40.00 L 295.50,39.00 L 295.50,38.00 L 295.50,37.00 L 296.00,36.50 L 296.50,36.00 L 297.00,35.50 L 298.00,35.50 L 299.00,35.50 L 300.00,35.50 L 301.00,35.50 L 302.00,35.50 L 303.00,35.50 L 304.00,35.50 L 305.00,35.50 L 305.50,36.00 L 306.00,36.50 L 306.50,36.00 L 307.00,35.50 L 307.50,36.00 L 308.00,36.50 L 308.50,36.00 L 309.00,35.50 L 309.50,36.00 L 310.00,36.50 L 310.50,36.00 L 311.00,35.50 L 311.50,36.00 L 312.00,36.50 L 313.00,36.50 L 314.00,36.50 L 315.00,36.50 L 316.00,36.50 L 317.00,36.50 L 318.00,36.50 L 318.50,36.00 L 319.00,35.50 L 320.00,35.50 L 321.00,35.50 L 322.00,35.50 L 323.00,35.50 L 323.50,35.00 L 324.00,34.50 L 324.50,34.00 L 325.00,33.50 L 326.00,33.50 L 327.00,33.50 L 327.50,33.00 L 327.50,32.00 L 328.00,31.50 L 329.00,31.50 L 330.00,31.50 L 331.00,31.50 L 332.00,31.50 L 332.50,31.00 L 333.00,30.50 L 334.00,30.50 L 335.00,30.50 L 335.50,31.00 L 335.50,32.00 L 335.50,33.00 L 336.00,33.50 L 337.00,33.50 L 337.50,34.00 L 338.00,34.50 L 339.00,34.50 L 339.50,35.00 L 340.00,35.50 L 341.00,35.50 L 342.00,35.50 L 343.00,35.50 L 344.00,35.50 L 345.00,35.50 L 346.00,35.50 L 347.00,35.50 L 348.00,35.50 L 349.00,35.50 L 350.00,35.50 L 351.00,35.50 L 351.50,35.00 L 352.00,34.50 L 353.00,34.50 L 354.00,34.50 L 354.50,34.00 L 354.50,33.00 L 354.50,32.00 L 354.50,31.00 L 355.00,30.50 L 356.00,30.50 L 357.00,30.50 L 358.00,30.50 L 359.00,30.50 L 360.00,30.50 L 361.00,30.50 L 362.00,30.50 L 363.00,30.50 L 364.00,30.50 L 364.50,31.00 L 365.00,31.50 L 365.50,32.00 L 366.00,32.50 L 366.50,33.00 L 367.00,33.50 L 367.50,34.00 L 367.50,35.00 L 368.00,35.50 L 369.00,35.50 L 370.00,35.50 L 371.00,35.50 L 372.00,35.50 L 373.00,35.50 L 374.00,35.50 L 375.00,35.50 L 376.00,35.50 L 377.00,35.50 L 378.00,35.50 L 379.00,35.50 L 380.00,35.50 L 381.00,35.50 L 382.00,35.50 L 382.50,35.00 L 383.00,34.50 L 383.50,34.00 L 383.50,33.00 L 384.00,32.50 L 384.50,32.00 L 385.00,31.50 L 386.00,31.50 L 387.00,31.50 L 388.00,31.50 L 389.00,31.50 L 390.00,31.50 L 391.00,31.50 L 392.00,31.50 L 393.00,31.50 L 394.00,31.50 L 395.00,31.50 L 395.50,31.00 L 396.00,30.50 L 397.00,30.50 L 398.00,30.50 L 399.00,30.50 L 399.50,31.00 L 400.00,31.50 L 401.00,31.50 L 402.00,31.50 L 403.00,31.50 L 404.00,31.50 L 405.00,31.50 L 406.00,31.50 L 407.00,31.50 L 408.00,31.50 L 409.00,31.50 L 410.00,31.50 L 410.50,32.00 L 410.50,33.00 L 410.50,34.00 L 411.00,34.50 L 412.00,34.50 L 412.50,35.00 L 413.00,35.50 L 414.00,35.50 L 415.00,35.50 L 416.00,35.50 L 417.00,35.50 L 418.00,35.50 L 419.00,35.50 L 420.00,35.50 L 421.00,35.50 L 422.00,35.50 L 423.00,35.50 L 424.00,35.50 L 425.00,35.50 L 426.00,35.50 L 427.00,35.50 L 428.00,35.50 L 429.00,35.50 L 430.00,35.50 L 431.00,35.50 L 432.00,35.50 L 433.00,35.50 L 434.00,35.50 L 435.00,35.50 L 435.50,36.00 L 436.00,36.50 L 437.00,36.50 L 438.00,36.50 L 439.00,36.50 L 439.50,37.00 L 439.50,38.00 L 440.00,38.50 L 440.50,39.00 L 440.50,40.00 L 441.00,40.50 L 441.50,41.00 L 441.00,41.50 L 440.50,42.00 L 440.50,43.00 L 441.00,43.50 L 441.50,44.00 L 442.00,44.50 L 443.00,44.50 L 444.00,44.50 L 445.00,44.50 L 446.00,44.50 L 447.00,44.50 L 448.00,44.50 L 449.00,44.50 L 450.00,44.50 L 451.00,44.50 L 452.00,44.50 L 453.00,44.50 L 454.00,44.50 L 455.00,44.50 L 455.50,45.00 L 455.50,46.00 L 456.00,46.50 L 457.00,46.50 L 458.00,46.50 L 459.00,46.50 L 460.00,46.50 L 461.00,46.50 L 462.00,46.50 L 463.00,46.50 L 464.00,46.50 L 465.00,46.50 L 466.00,46.50 L 467.00,46.50 L 468.00,46.50 L 469.00,46.50 L 470.00,46.50 L 471.00,46.50 L 471.50,47.00 L 472.00,47.50 L 472.50,47.00 L 472.00,46.50 L 471.50,46.00 L 471.50,45.00 L 472.00,44.50 L 472.50,45.00 L 473.00,45.50 L 474.00,45.50 L 475.00,45.50 L 476.00,45.50 L 477.00,45.50 L 478.00,45.50 L 479.00,45.50 L 479.50,46.00 L 480.00,46.50 L 480.50,47.00 L 481.00,47.50 L 481.50,48.00 L 482.00,48.50 L 482.50,49.00 L 483.00,49.50 L 484.00,49.50 L 484.50,50.00 L 485.00,50.50 L 486.00,50.50 L 487.00,50.50 L 488.00,50.50 L 489.00,50.50 L 490.00,50.50 L 490.50,51.00 L 491.00,51.50 L 491.50,52.00 L 491.50,53.00 L 492.00,53.50 L 493.00,53.50 L 494.00,53.50 L 494.50,54.00 L 495.00,54.50 L 495.50,54.00 L 496.00,53.50 L 496.50,53.00 L 497.00,52.50 L 497.50,52.00 L 498.00,51.50 L 498.50,52.00 L 498.50,53.00 L 498.50,54.00 L 498.50,55.00 L 498.50,56.00 L 498.50,57.00 L 499.00,57.50 L 499.50,58.00 L 500.00,58.50 L 501.00,58.50 L 501.50,59.00 L 502.00,59.50 L 503.00,59.50 L 504.00,59.50 L 504.50,60.00 L 505.00,60.50 L 505.50,61.00 L 506.00,61.50 L 506.50,62.00 L 507.00,62.50 L 508.00,62.50 L 508.50,63.00 L 509.00,63.50 L 510.00,63.50 L 511.00,63.50 L 511.50,64.00 L 512.00,64.50 L 512.50,65.00 L 513.00,65.50 L 514.00,65.50 L 515.00,65.50 L 516.00,65.50 L 517.00,65.50 L 518.00,65.50 L 519.00,65.50 L 520.00,65.50 L 521.00,65.50 L 522.00,65.50 L 523.00,65.50 L 524.00,65.50 L 525.00,65.50 L 526.00,65.50 L 527.00,65.50 L 527.50,66.00 L 527.50,67.00 L 527.50,68.00 L 527.50,69.00 L 528.00,69.50 L 528.50,70.00 L 528.50,71.00 L 529.00,71.50 L 529.50,72.00 L 529.50,73.00 L 530.00,73.50 L 530.50,74.00 L 531.00,74.50 L 531.50,75.00 L 531.50,76.00 L 532.00,76.50 L 532.50,76.00 L 533.00,75.50 L 534.00,75.50 L 534.50,76.00 L 535.00,76.50 L 536.00,76.50 L 536.50,77.00 L 537.00,77.50 L 537.50,78.00 L 538.00,78.50 L 539.00,78.50 L 540.00,78.50 L 540.50,79.00 L 541.00,79.50 L 542.00,79.50 L 543.00,79.50 L 544.00,79.50 L 544.50,80.00 L 545.00,80.50 L 546.00,80.50 L 547.00,80.50 L 547.50,80.00 L 548.00,79.50 L 549.00,79.50 L 550.00,79.50 L 551.00,79.50 L 552.00,79.50 L 552.50,80.00 L 553.00,80.50 L 553.50,81.00 L 554.00,81.50 L 555.00,81.50 L 555.50,81.00 L 556.00,80.50 L 557.00,80.50 L 557.50,81.00 L 557.50,82.00 L 558.00,82.50 L 558.50,83.00 L 558.50,84.00 L 559.00,84.50 L 559.50,85.00 L 559.00,85.50 L 558.50,86.00 L 558.50,87.00 L 558.00,87.50 L 557.00,87.50 L 556.00,87.50 L 555.00,87.50 L 554.50,88.00 L 554.50,89.00 L 555.00,89.50 L 555.50,90.00 L 556.00,90.50 L 556.50,91.00 L 557.00,91.50 L 558.00,91.50 L 558.50,91.00 L 559.00,90.50 L 560.00,90.50 L 561.00,90.50 L 562.00,90.50 L 562.50,90.00 L 563.00,89.50 L 563.50,90.00 L 564.00,90.50 L 564.50,91.00 L 565.00,91.50 L 565.50,92.00 L 566.00,92.50 L 566.50,93.00 L 567.00,93.50 L 567.50,94.00 L 568.00,94.50 L 569.00,94.50 L 569.50,95.00 L 570.00,95.50 L 571.00,95.50 L 571.50,96.00 L 571.50,97.00 L 572.00,97.50 L 572.50,98.00 L 572.50,99.00 L 572.50,100.00 L 572.00,100.50 L 571.50,101.00 L 571.50,102.00 L 572.00,102.50 L 572.50,103.00 L 572.50,104.00 L 572.50,105.00 L 573.00,105.50 L 574.00,105.50 L 574.50,106.00 L 575.00,106.50 L 576.00,106.50 L 577.00,106.50 L 577.50,106.00 L 578.00,105.50 L 579.00,105.50 L 580.00,105.50 L 580.50,106.00 L 581.00,106.50 L 582.00,106.50 L 582.50,107.00 L 583.00,107.50 L 584.00,107.50 L 584.50,108.00 L 584.50,109.00 L 585.00,109.50 L 586.00,109.50 L 586.50,110.00 L 587.00,110.50 L 587.50,111.00 L 587.50,112.00 L 587.50,113.00 L 588.00,113.50 L 588.50,114.00 L 588.50,115.00 L 588.50,116.00 L 588.50,117.00 L 589.00,117.50 L 590.00,117.50 L 590.50,118.00 L 591.00,118.50 L 592.00,118.50 L 592.50,119.00 L 593.00,119.50 L 594.00,119.50 L 594.50,120.00 L 595.00,120.50 L 595.50,121.00 L 596.00,121.50 L 597.00,121.50 L 597.50,122.00 L 598.00,122.50 L 599.00,122.50 L 599.50,123.00 L 600.00,123.50 L 600.50,124.00 L 601.00,124.50 L 601.50,125.00 L 602.00,125.50 L 602.50,126.00 L 602.50,127.00 L 603.00,127.50 L 603.50,128.00 L 603.50,129.00 L 603.50,130.00 L 603.50,131.00 L 604.00,131.50 L 605.00,131.50 L 605.50,132.00 L 606.00,132.50 L 607.00,132.50 L 607.50,133.00 L 607.50,134.00 L 608.00,134.50 L 609.00,134.50 L 610.00,134.50 L 611.00,134.50 L 611.50,135.00 L 611.50,136.00 L 611.50,137.00 L 612.00,137.50 L 613.00,137.50 L 613.50,138.00 L 614.00,138.50 L 614.50,139.00 L 614.50,140.00 L 614.50,141.00 L 614.50,142.00 L 615.00,142.50 L 615.50,143.00 L 616.00,143.50 L 616.50,144.00 L 617.00,144.50 L 617.50,145.00 L 618.00,145.50 L 618.50,146.00 L 619.00,146.50 L 620.00,146.50 L 620.50,147.00 L 621.00,147.50 L 622.00,147.50 L 623.00,147.50 L 624.00,147.50 L 624.50,148.00 L 624.50,149.00 L 625.00,149.50 L 625.50,150.00 L 626.00,150.50 L 626.50,151.00 L 627.00,151.50 L 627.50,152.00 L 627.50,153.00 L 627.50,154.00 L 628.00,154.50 L 629.00,154.50 L 629.50,155.00 L 629.50,156.00 L 630.00,156.50 L 630.50,157.00 L 631.00,157.50 L 631.50,158.00 L 631.50,159.00 L 631.50,160.00 L 632.00,160.50 L 632.50,161.00 L 633.00,161.50 L 633.50,162.00 L 634.00,162.50 L 635.00,162.50 L 636.00,162.50 L 636.50,163.00 L 637.00,163.50 L 637.50,164.00 L 638.00,164.50 L 638.50,165.00 L 638.50,166.00 L 639.00,166.50 L 639.50,167.00 L 640.00,167.50 L 641.00,167.50 L 641.50,168.00 L 642.00,168.50 L 642.50,169.00 L 643.00,169.50 L 644.00,169.50 L 645.00,169.50 L 645.50,170.00 L 645.50,171.00 L 645.50,172.00 L 645.50,173.00 L 645.50,174.00 L 645.50,175.00 L 646.00,175.50 L 647.00,175.50 L 647.50,176.00 L 647.00,176.50 L 646.00,176.50 L 645.50,177.00 L 645.50,178.00 L 646.00,178.50 L 647.00,178.50 L 647.50,178.00 L 647.50,177.00 L 648.00,176.50 L 649.00,176.50 L 649.50,177.00 L 650.00,177.50 L 651.00,177.50 L 652.00,177.50 L 653.00,177.50 L 654.00,177.50 L 654.50,178.00 L 655.00,178.50 L 655.50,179.00 L 655.00,179.50 L 654.50,180.00 L 655.00,180.50 L 655.50,181.00 L 655.50,182.00 L 655.50,183.00 L 655.50,184.00 L 655.50,185.00 L 655.50,186.00 L 655.50,187.00 L 655.50,188.00 L 655.50,189.00 L 655.50,190.00 L 656.00,190.50 L 656.50,191.00 L 657.00,191.50 L 657.50,192.00 L 658.00,192.50 L 659.00,192.50 L 659.50,193.00 L 660.00,193.50 L 660.50,194.00 L 660.00,194.50 L 659.50,195.00 L 659.50,196.00 L 660.00,196.50 L 660.50,197.00 L 660.50,198.00 L 660.00,198.50 L 659.50,199.00 L 659.50,200.00 L 659.50,201.00 L 660.00,201.50 L 660.50,202.00 L 660.50,203.00 L 661.00,203.50 L 661.50,204.00 L 661.50,205.00 L 662.00,205.50 L 662.50,206.00 L 663.00,206.50 L 663.50,207.00 L 664.00,207.50 L 664.50,208.00 L 665.00,208.50 L 665.50,209.00 L 665.50,210.00 L 666.00,210.50 L 666.50,211.00 L 667.00,211.50 L 667.50,212.00 L 668.00,212.50 L 668.50,213.00 L 669.00,213.50 L 669.50,214.00 L 670.00,214.50 L 670.50,215.00 L 671.00,215.50 L 671.50,216.00 L 671.50,217.00 L 672.00,217.50 L 672.50,218.00 L 672.50,219.00 L 672.50,220.00 L 672.50,221.00 L 672.50,222.00 L 672.50,223.00 L 672.50,224.00 L 672.50,225.00 L 673.00,225.50 L 674.00,225.50 L 674.50,226.00 L 675.00,226.50 L 675.50,227.00 L 675.50,228.00 L 675.50,229.00 L 676.00,229.50 L 676.50,230.00 L 676.50,231.00 L 676.50,232.00 L 676.50,233.00 L 676.50,234.00 L 677.00,234.50 L 677.50,235.00 L 678.00,235.50 L 679.00,235.50 L 680.00,235.50 L 681.00,235.50 L 681.50,236.00 L 682.00,236.50 L 683.00,236.50 L 683.50,237.00 L 684.00,237.50 L 684.50,238.00 L 684.00,238.50 L 683.50,239.00 L 684.00,239.50 L 684.50,240.00 L 684.50,241.00 L 684.50,242.00 L 684.50,243.00 L 684.50,244.00 L 684.50,245.00 L 684.50,246.00 L 684.50,247.00 L 684.50,248.00 L 684.50,249.00 L 684.50,250.00 L 684.50,251.00 L 684.50,252.00 L 684.50,253.00 L 685.00,253.50 L 685.50,254.00 L 685.50,255.00 L 685.50,256.00 L 686.00,256.50 L 686.50,257.00 L 686.50,258.00 L 687.00,258.50 L 688.00,258.50 L 688.50,259.00 L 689.00,259.50 L 689.50,260.00 L 689.50,261.00 L 689.00,261.50 L 688.50,262.00 L 688.50,263.00 L 688.50,264.00 L 689.00,264.50 L 689.50,265.00 L 689.50,266.00 L 689.50,267.00 L 690.00,267.50 L 690.50,268.00 L 690.50,269.00 L 690.50,270.00 L 690.50,271.00 L 690.50,272.00 L 690.50,273.00 L 691.00,273.50 L 691.50,274.00 L 691.00,274.50 L 690.50,275.00 L 691.00,275.50 L 691.50,276.00 L 691.50,277.00 L 691.50,278.00 L 691.50,279.00 L 692.00,279.50 L 693.00,279.50 L 693.50,280.00 L 694.00,280.50 L 695.00,280.50 L 695.50,280.00 L 696.00,279.50 L 696.50,280.00 L 697.00,280.50 L 698.00,280.50 L 698.50,281.00 L 699.00,281.50 L 699.50,282.00 L 699.50,283.00 L 699.50,284.00 L 699.50,285.00 L 699.50,286.00 L 699.50,287.00 L 699.50,288.00 L 699.50,289.00 L 699.50,290.00 L 699.50,291.00 L 699.50,292.00 L 699.50,293.00 L 700.00,293.50 L 700.50,294.00 L 701.00,294.50 L 701.50,295.00 L 702.00,295.50 L 702.50,296.00 L 702.50,297.00 L 702.50,298.00 L 703.00,298.50 L 703.50,298.00 L 704.00,297.50 L 704.50,298.00 L 704.50,299.00 L 704.50,300.00 L 704.50,301.00 L 704.50,302.00 L 704.50,303.00 L 704.50,304.00 L 704.50,305.00 L 704.50,306.00 L 704.50,307.00 L 704.50,308.00 L 704.50,309.00 L 704.50,310.00 L 704.50,311.00 L 704.50,312.00 L 704.50,313.00 L 704.50,314.00 L 704.50,315.00 L 704.00,315.50 L 703.50,316.00 L 703.50,317.00 L 703.50,318.00 L 703.50,319.00 L 703.50,320.00 L 703.50,321.00 L 703.50,322.00 L 703.50,323.00 L 703.50,324.00 L 703.50,325.00 L 703.50,326.00 L 704.00,326.50 L 704.50,327.00 L 704.00,327.50 L 703.50,328.00 L 703.50,329.00 L 703.50,330.00 L 703.50,331.00 L 703.50,332.00 L 703.50,333.00 L 703.50,334.00 L 703.50,335.00 L 704.00,335.50 L 704.50,336.00 L 704.50,337.00 L 704.50,338.00 L 704.50,339.00 L 704.50,340.00 L 704.50,341.00 L 704.50,342.00 L 704.50,343.00 L 704.50,344.00 L 704.50,345.00 L 704.50,346.00 L 704.50,347.00 L 704.50,348.00 L 704.50,349.00 L 704.50,350.00 L 704.50,351.00 L 704.50,352.00 L 704.50,353.00 L 704.50,354.00 L 704.50,355.00 L 704.50,356.00 L 704.50,357.00 L 704.50,358.00 L 704.50,359.00 L 704.50,360.00 L 704.50,361.00 L 704.50,362.00 L 704.50,363.00 L 704.50,364.00 L 704.50,365.00 L 704.50,366.00 L 704.00,366.50 L 703.50,367.00 L 703.00,367.50 L 702.50,368.00 L 702.00,368.50 L 701.50,369.00 L 701.50,370.00 L 701.50,371.00 L 701.50,372.00 L 702.00,372.50 L 702.50,373.00 L 702.00,373.50 L 701.50,374.00 L 701.50,375.00 L 701.50,376.00 L 701.50,377.00 L 701.50,378.00 L 701.50,379.00 L 701.50,380.00 L 701.50,381.00 L 701.50,382.00 L 702.00,382.50 L 702.50,383.00 L 703.00,383.50 L 704.00,383.50 L 704.50,384.00 L 704.50,385.00 L 704.50,386.00 L 704.50,387.00 L 704.50,388.00 L 704.50,389.00 L 704.50,390.00 L 704.50,391.00 L 704.50,392.00 L 704.50,393.00 L 704.50,394.00 L 704.50,395.00 L 704.50,396.00 L 704.00,396.50 L 703.50,397.00 L 703.50,398.00 L 703.50,399.00 L 703.00,399.50 L 702.50,400.00 L 702.50,401.00 L 702.50,402.00 L 702.50,403.00 L 702.50,404.00 L 702.50,405.00 L 702.50,406.00 L 702.50,407.00 L 703.00,407.50 L 703.50,408.00 L 703.00,408.50 L 702.50,409.00 L 702.50,410.00 L 702.00,410.50 L 701.50,411.00 L 701.00,411.50 L 700.50,412.00 L 700.50,413.00 L 700.00,413.50 L 699.50,414.00 L 699.50,415.00 L 699.50,416.00 L 699.50,417.00 L 699.50,418.00 L 699.50,419.00 L 699.50,420.00 L 699.50,421.00 L 699.50,422.00 L 699.50,423.00 L 699.50,424.00 L 699.50,425.00 L 699.50,426.00 L 699.50,427.00 L 699.50,428.00 L 699.50,429.00 L 699.50,430.00 L 699.50,431.00 L 699.50,432.00 L 699.50,433.00 L 699.50,434.00 L 699.50,435.00 L 699.50,436.00 L 699.50,437.00 L 699.50,438.00 L 699.00,438.50 L 698.50,439.00 L 698.50,440.00 L 698.00,440.50 L 697.50,441.00 L 697.00,441.50 L 696.50,442.00 L 696.00,442.50 L 695.50,443.00 L 695.50,444.00 L 695.50,445.00 L 696.00,445.50 L 696.50,446.00 L 696.50,447.00 L 696.00,447.50 L 695.50,448.00 L 696.00,448.50 L 696.50,449.00 L 696.50,450.00 L 697.00,450.50 L 697.50,451.00 L 697.50,452.00 L 697.00,452.50 L 696.50,453.00 L 696.50,454.00 L 696.00,454.50 L 695.50,455.00 L 695.00,455.50 L 694.00,455.50 L 693.00,455.50 L 692.00,455.50 L 691.50,456.00 L 691.50,457.00 L 691.00,457.50 L 690.50,458.00 L 690.50,459.00 L 690.50,460.00 L 690.00,460.50 L 689.50,461.00 L 689.50,462.00 L 689.50,463.00 L 689.00,463.50 L 688.50,464.00 L 689.00,464.50 L 689.50,465.00 L 689.50,466.00 L 689.00,466.50 L 688.50,467.00 L 688.00,467.50 L 687.50,468.00 L 687.00,468.50 L 686.50,469.00 L 687.00,469.50 L 687.50,470.00 L 688.00,470.50 L 688.50,471.00 L 688.00,471.50 L 687.50,472.00 L 688.00,472.50 L 689.00,472.50 L 689.50,473.00 L 689.50,474.00 L 689.50,475.00 L 689.50,476.00 L 689.00,476.50 L 688.50,477.00 L 688.50,478.00 L 688.50,479.00 L 688.00,479.50 L 687.00,479.50 L 686.50,480.00 L 686.50,481.00 L 686.00,481.50 L 685.00,481.50 L 684.00,481.50 L 683.50,482.00 L 683.00,482.50 L 682.50,483.00 L 683.00,483.50 L 683.50,484.00 L 683.50,485.00 L 684.00,485.50 L 684.50,486.00 L 684.50,487.00 L 684.50,488.00 L 684.50,489.00 L 684.50,490.00 L 684.50,491.00 L 684.50,492.00 L 684.50,493.00 L 684.50,494.00 L 684.50,495.00 L 684.00,495.50 L 683.00,495.50 L 682.00,495.50 L 681.00,495.50 L 680.50,496.00 L 681.00,496.50 L 681.50,497.00 L 681.00,497.50 L 680.50,498.00 L 680.00,498.50 L 679.00,498.50 L 678.00,498.50 L 677.50,499.00 L 677.00,499.50 L 676.00,499.50 L 675.00,499.50 L 674.00,499.50 L 673.50,500.00 L 673.00,500.50 L 672.50,501.00 L 672.50,502.00 L 672.00,502.50 L 671.50,503.00 L 672.00,503.50 L 672.50,504.00 L 672.00,504.50 L 671.50,505.00 L 671.50,506.00 L 672.00,506.50 L 672.50,507.00 L 672.50,508.00 L 673.00,508.50 L 673.50,509.00 L 673.50,510.00 L 674.00,510.50 L 675.00,510.50 L 675.50,511.00 L 675.00,511.50 L 674.00,511.50 L 673.50,512.00 L 673.50,513.00 L 673.00,513.50 L 672.00,513.50 L 671.50,513.00 L 671.00,512.50 L 670.50,513.00 L 670.00,513.50 L 669.50,514.00 L 669.50,515.00 L 669.00,515.50 L 668.50,516.00 L 669.00,516.50 L 669.50,517.00 L 669.50,518.00 L 669.50,519.00 L 669.50,520.00 L 669.50,521.00 L 669.50,522.00 L 669.50,523.00 L 669.50,524.00 L 669.50,525.00 L 669.50,526.00 L 669.50,527.00 L 669.00,527.50 L 668.00,527.50 L 667.00,527.50 L 666.00,527.50 L 665.00,527.50 L 664.50,528.00 L 664.00,528.50 L 663.00,528.50 L 662.00,528.50 L 661.00,528.50 L 660.00,528.50 L 659.50,529.00 L 659.00,529.50 L 658.50,530.00 L 658.00,530.50 L 657.50,531.00 L 657.00,531.50 L 656.50,532.00 L 656.50,533.00 L 657.00,533.50 L 657.50,534.00 L 657.50,535.00 L 657.50,536.00 L 657.50,537.00 L 658.00,537.50 L 658.50,538.00 L 658.50,539.00 L 658.00,539.50 L 657.50,540.00 L 657.00,540.50 L 656.50,541.00 L 656.50,542.00 L 656.00,542.50 L 655.00,542.50 L 654.50,543.00 L 654.00,543.50 L 653.00,543.50 L 652.50,543.00 L 652.00,542.50 L 651.00,542.50 L 650.00,542.50 L 649.50,543.00 L 649.00,543.50 L 648.50,544.00 L 648.00,544.50 L 647.50,545.00 L 647.50,546.00 L 647.50,547.00 L 647.50,548.00 L 647.50,549.00 L 647.00,549.50 L 646.50,550.00 L 646.50,551.00 L 646.00,551.50 L 645.50,552.00 L 645.50,553.00 L 645.50,554.00 L 645.50,555.00 L 645.50,556.00 L 645.50,557.00 L 645.50,558.00 L 645.50,559.00 L 645.00,559.50 L 644.50,560.00 L 644.50,561.00 L 644.50,562.00 L 644.00,562.50 L 643.00,562.50 L 642.50,563.00 L 642.00,563.50 L 641.50,564.00 L 641.00,564.50 L 640.50,565.00 L 640.00,565.50 L 639.50,566.00 L 639.50,567.00 L 639.00,567.50 L 638.00,567.50 L 637.50,568.00 L 637.50,569.00 L 637.00,569.50 L 636.00,569.50 L 635.50,570.00 L 635.50,571.00 L 635.00,571.50 L 634.50,572.00 L 634.00,572.50 L 633.00,572.50 L 632.50,573.00 L 632.50,574.00 L 632.50,575.00 L 632.00,575.50 L 631.00,575.50 L 630.50,576.00 L 630.50,577.00 L 630.50,578.00 L 630.00,578.50 L 629.50,579.00 L 629.00,579.50 L 628.50,580.00 L 628.00,580.50 L 627.50,581.00 L 627.00,581.50 L 626.50,582.00 L 626.00,582.50 L 625.50,583.00 L 625.00,583.50 L 624.50,584.00 L 624.00,584.50 L 623.50,585.00 L 623.50,586.00 L 623.50,587.00 L 623.00,587.50 L 622.00,587.50 L 621.00,587.50 L 620.50,587.00 L 620.00,586.50 L 619.00,586.50 L 618.00,586.50 L 617.00,586.50 L 616.50,587.00 L 616.00,587.50 L 615.00,587.50 L 614.50,588.00 L 614.00,588.50 L 613.50,589.00 L 613.50,590.00 L 613.50,591.00 L 613.50,592.00 L 613.50,593.00 L 613.00,593.50 L 612.50,594.00 L 612.50,595.00 L 612.00,595.50 L 611.50,596.00 L 611.50,597.00 L 611.50,598.00 L 611.00,598.50 L 610.50,599.00 L 610.00,599.50 L 609.00,599.50 L 608.00,599.50 L 607.50,600.00 L 607.00,600.50 L 606.00,600.50 L 605.50,601.00 L 605.00,601.50 L 604.50,602.00 L 604.00,602.50 L 603.00,602.50 L 602.00,602.50 L 601.50,603.00 L 601.00,603.50 L 600.50,604.00 L 600.00,604.50 L 599.50,605.00 L 599.50,606.00 L 599.00,606.50 L 598.50,607.00 L 598.00,607.50 L 597.50,608.00 L 597.50,609.00 L 597.00,609.50 L 596.50,610.00 L 596.00,610.50 L 595.50,611.00 L 595.50,612.00 L 595.00,612.50 L 594.00,612.50 L 593.50,613.00 L 593.00,613.50 L 592.00,613.50 L 591.00,613.50 L 590.50,614.00 L 590.00,614.50 L 589.00,614.50 L 588.50,615.00 L 588.50,616.00 L 588.00,616.50 L 587.00,616.50 L 586.00,616.50 L 585.50,617.00 L 585.00,617.50 L 584.50,618.00 L 584.50,619.00 L 584.00,619.50 L 583.50,620.00 L 583.50,621.00 L 583.50,622.00 L 583.50,623.00 L 584.00,623.50 L 584.50,624.00 L 585.00,624.50 L 585.50,625.00 L 586.00,625.50 L 586.50,626.00 L 586.50,627.00 L 586.50,628.00 L 587.00,628.50 L 587.50,629.00 L 587.00,629.50 L 586.00,629.50 L 585.50,630.00 L 585.00,630.50 L 584.50,631.00 L 584.00,631.50 L 583.50,631.00 L 583.00,630.50 L 582.00,630.50 L 581.50,630.00 L 581.00,629.50 L 580.50,629.00 L 580.00,628.50 L 579.50,628.00 L 579.00,627.50 L 578.00,627.50 L 577.50,628.00 L 577.00,628.50 L 576.00,628.50 L 575.50,628.00 L 575.00,627.50 L 574.00,627.50 L 573.00,627.50 L 572.50,628.00 L 572.00,628.50 L 571.50,629.00 L 571.00,629.50 L 570.50,630.00 L 570.50,631.00 L 570.00,631.50 L 569.00,631.50 L 568.50,632.00 L 568.00,632.50 L 567.50,633.00 L 567.50,634.00 L 567.50,635.00 L 567.50,636.00 L 567.50,637.00 L 567.50,638.00 L 567.50,639.00 L 567.00,639.50 L 566.00,639.50 L 565.50,640.00 L 565.00,640.50 L 564.00,640.50 L 563.00,640.50 L 562.00,640.50 L 561.00,640.50 L 560.00,640.50 L 559.50,641.00 L 559.00,641.50 L 558.00,641.50 L 557.00,641.50 L 556.50,642.00 L 556.00,642.50 L 555.50,643.00 L 555.00,643.50 L 554.50,644.00 L 554.00,644.50 L 553.00,644.50 L 552.50,645.00 L 552.00,645.50 L 551.00,645.50 L 550.00,645.50 L 549.50,646.00 L 549.00,646.50 L 548.00,646.50 L 547.50,647.00 L 547.00,647.50 L 546.00,647.50 L 545.00,647.50 L 544.50,648.00 L 544.00,648.50 L 543.50,649.00 L 543.50,650.00 L 543.50,651.00 L 543.50,652.00 L 543.50,653.00 L 543.50,654.00 L 543.50,655.00 L 543.00,655.50 L 542.50,656.00 L 542.00,656.50 L 541.50,657.00 L 541.50,658.00 L 541.50,659.00 L 541.00,659.50 L 540.00,659.50 L 539.50,659.00 L 539.00,658.50 L 538.50,658.00 L 538.00,657.50 L 537.00,657.50 L 536.00,657.50 L 535.00,657.50 L 534.00,657.50 L 533.00,657.50 L 532.00,657.50 L 531.00,657.50 L 530.00,657.50 L 529.00,657.50 L 528.00,657.50 L 527.50,658.00 L 527.00,658.50 L 526.50,659.00 L 526.00,659.50 L 525.50,660.00 L 525.50,661.00 L 525.50,662.00 L 526.00,662.50 L 526.50,663.00 L 527.00,663.50 L 528.00,663.50 L 528.50,664.00 L 528.50,665.00 L 528.50,666.00 L 528.50,667.00 L 528.00,667.50 L 527.50,668.00 L 527.00,668.50 L 526.00,668.50 L 525.50,668.00 L 525.00,667.50 L 524.50,667.00 L 524.00,666.50 L 523.00,666.50 L 522.00,666.50 L 521.00,666.50 L 520.00,666.50 L 519.00,666.50 L 518.00,666.50 L 517.00,666.50 L 516.50,667.00 L 516.00,667.50 L 515.00,667.50 L 514.00,667.50 L 513.00,667.50 L 512.50,668.00 L 512.00,668.50 L 511.50,669.00 L 511.00,669.50 L 510.50,670.00 L 510.50,671.00 L 511.00,671.50 L 511.50,672.00 L 511.00,672.50 L 510.50,673.00 L 510.00,673.50 L 509.00,673.50 L 508.00,673.50 L 507.00,673.50 L 506.00,673.50 L 505.50,674.00 L 505.00,674.50 L 504.00,674.50 L 503.00,674.50 L 502.00,674.50 L 501.50,674.00 L 501.00,673.50 L 500.50,673.00 L 500.00,672.50 L 499.00,672.50 L 498.00,672.50 L 497.50,673.00 L 497.00,673.50 L 496.00,673.50 L 495.50,674.00 L 495.50,675.00 L 495.00,675.50 L 494.00,675.50 L 493.00,675.50 L 492.50,676.00 L 492.00,676.50 L 491.00,676.50 L 490.00,676.50 L 489.00,676.50 L 488.00,676.50 L 487.00,676.50 L 486.50,677.00 L 486.00,677.50 L 485.50,678.00 L 485.00,678.50 L 484.50,679.00 L 484.50,680.00 L 484.50,681.00 L 484.00,681.50 L 483.50,682.00 L 483.00,682.50 L 482.00,682.50 L 481.50,683.00 L 481.00,683.50 L 480.50,684.00 L 480.00,684.50 L 479.00,684.50 L 478.50,685.00 L 478.50,686.00 L 478.00,686.50 L 477.50,687.00 L 477.00,687.50 L 476.00,687.50 L 475.50,688.00 L 475.00,688.50 L 474.00,688.50 L 473.00,688.50 L 472.00,688.50 L 471.50,688.00 L 471.00,687.50 L 470.00,687.50 L 469.00,687.50 L 468.00,687.50 L 467.00,687.50 L 466.00,687.50 L 465.50,688.00 L 465.00,688.50 L 464.50,688.00 L 464.00,687.50 L 463.50,688.00 L 463.00,688.50 L 462.00,688.50 L 461.50,689.00 L 461.00,689.50 L 460.00,689.50 L 459.00,689.50 L 458.00,689.50 L 457.00,689.50 L 456.00,689.50 L 455.50,690.00 L 455.00,690.50 L 454.50,690.00 L 454.00,689.50 L 453.00,689.50 L 452.00,689.50 L 451.50,690.00 L 451.00,690.50 L 450.00,690.50 L 449.00,690.50 L 448.00,690.50 L 447.00,690.50 L 446.00,690.50 L 445.50,691.00 L 445.00,691.50 L 444.00,691.50 L 443.00,691.50 L 442.50,692.00 L 442.00,692.50 L 441.50,693.00 L 441.00,693.50 L 440.50,694.00 L 440.50,695.00 L 440.00,695.50 L 439.50,696.00 L 439.50,697.00 L 439.50,698.00 L 439.00,698.50 L 438.50,699.00 L 438.00,699.50 L 437.00,699.50 L 436.00,699.50 L 435.00,699.50 L 434.00,699.50 L 433.00,699.50 L 432.00,699.50 L 431.00,699.50 L 430.00,699.50 L 429.00,699.50 L 428.00,699.50 L 427.00,699.50 L 426.00,699.50 L 425.00,699.50 L 424.50,700.00 L 424.00,700.50 L 423.00,700.50 L 422.00,700.50 L 421.00,700.50 L 420.50,700.00 L 420.00,699.50 L 419.00,699.50 L 418.00,699.50 L 417.00,699.50 L 416.00,699.50 L 415.00,699.50 L 414.50,699.00 L 414.00,698.50 L 413.50,699.00 L 413.00,699.50 L 412.00,699.50 L 411.50,700.00 L 411.00,700.50 L 410.00,700.50 L 409.50,701.00 L 409.00,701.50 L 408.50,702.00 L 408.00,702.50 L 407.00,702.50 L 406.00,702.50 L 405.00,702.50 L 404.00,702.50 L 403.00,702.50 L 402.00,702.50 L 401.50,703.00 L 401.00,703.50 Z" /></clipPath></defs><image clip-path="url(#irisclip)" height="736" width="736" x="0" xlink:href="/mnt/data/c0e20ae9-37da-4171-b6ab-9ddafbc5151c.png" y="0" /></svg>